<?xml version="1.0" encoding="UTF-8" standalone="no"?>
<!-- Created with Inkscape (http://www.inkscape.org/) -->

<svg
   xmlns:dc="http://purl.org/dc/elements/1.1/"
   xmlns:cc="http://creativecommons.org/ns#"
   xmlns:rdf="http://www.w3.org/1999/02/22-rdf-syntax-ns#"
   xmlns:svg="http://www.w3.org/2000/svg"
   xmlns="http://www.w3.org/2000/svg"
   xmlns:xlink="http://www.w3.org/1999/xlink"
   xmlns:sodipodi="http://sodipodi.sourceforge.net/DTD/sodipodi-0.dtd"
   xmlns:inkscape="http://www.inkscape.org/namespaces/inkscape"
   width="700mm"
   height="384mm"
   viewBox="0 0 700 384"
   version="1.1"
   id="svg8"
   sodipodi:docname="sash2.svg"
   inkscape:version="0.92.4 (5da689c313, 2019-01-14)">
  <defs
     id="defs2">
    <linearGradient
       inkscape:collect="always"
       id="linearGradient865">
      <stop
         style="stop-color:#f70804;stop-opacity:1;"
         offset="0"
         id="stop861" />
      <stop
         style="stop-color:#111cff;stop-opacity:0.98431373"
         offset="1"
         id="stop863" />
    </linearGradient>
    <linearGradient
       inkscape:collect="always"
       xlink:href="#linearGradient865"
       id="linearGradient867"
       x1="120.10668"
       y1="208.96654"
       x2="608.56732"
       y2="14.420771"
       gradientUnits="userSpaceOnUse" />
  </defs>
  <sodipodi:namedview
     id="base"
     pagecolor="#ffffff"
     bordercolor="#666666"
     borderopacity="1.0"
     inkscape:pageopacity="0.0"
     inkscape:pageshadow="2"
     inkscape:zoom="0.35"
     inkscape:cx="782.72005"
     inkscape:cy="813.57419"
     inkscape:document-units="px"
     inkscape:current-layer="layer1"
     showgrid="false"
     inkscape:showpageshadow="false"
     width="700mm"
     objecttolerance="20"
     inkscape:pagecheckerboard="false"
     inkscape:window-width="1920"
     inkscape:window-height="1017"
     inkscape:window-x="-8"
     inkscape:window-y="-8"
     inkscape:window-maximized="1" />
  <metadata
     id="metadata5">
    <rdf:RDF>
      <cc:Work
         rdf:about="">
        <dc:format>image/svg+xml</dc:format>
        <dc:type
           rdf:resource="http://purl.org/dc/dcmitype/StillImage" />
        <dc:title></dc:title>
      </cc:Work>
    </rdf:RDF>
  </metadata>
  <g
     inkscape:label="Layer 1"
     inkscape:groupmode="layer"
     id="layer1"
     transform="translate(0,86.999988)">
    <path
       style="opacity:1;fill:url(#linearGradient867);fill-opacity:1;stroke:#000000;stroke-width:0.20530048;stroke-miterlimit:4;stroke-dasharray:none;stroke-opacity:1;paint-order:stroke fill markers"
       id="path859"
       d="m 112.37741,213.17604 c 19.13792,78.7479 -61.298896,12.39319 -35.574317,-4.04112 -5.289718,-7.24782 -126.909091,-60.79719 43.407947,-22.66616 3.09083,-5.79907 7.12984,-11.06009 11.25796,-16.22375 5.74382,-6.71575 12.23317,-12.79743 18.96003,-18.62048 7.41497,-6.19327 15.43309,-11.69992 23.5389,-17.04667 8.39256,-5.17144 16.62978,-10.61357 25.35687,-15.28464 3.77227,-2.01906 6.24787,-3.16644 10.11671,-5.03712 8.4586,-3.93808 17.22983,-7.31206 26.30591,-9.75142 1.71954,-0.46215 3.46061,-0.84933 5.19093,-1.274 8.9966,-2.01135 18.19989,-3.02177 27.41258,-3.576782 8.28367,-0.532046 16.44807,0.941592 24.50355,2.574282 8.33855,1.76 16.39155,4.47281 24.28218,7.53376 5.75058,2.18472 11.30937,4.75053 16.70006,7.63291 4.17375,2.2925 8.41479,4.4753 12.69624,6.58205 6.68685,3.18906 13.77796,5.48435 20.84361,7.78222 6.37331,2.19427 13.06319,3.23131 19.70771,4.36645 7.02059,1.20714 14.10931,2.21887 21.27084,1.82287 1.93529,-0.10735 -72.49453,-98.65126 17.12426,-58.018561 10.31686,-1.17044 47.49545,-20.40099 56.7851,-24.58673 7.62088,-3.75176 -24.56376,65.006141 -17.38503,60.560961 7.29086,-4.42979 14.64386,-8.76729 21.95969,-13.16054 0.65527,-0.39349 -1.31878,0.77455 -1.97821,1.16182 9.26686,-5.979366 17.81312,-12.853868 26.26762,-19.804439 6.8169,-5.606604 13.49103,-11.362904 20.0493,-17.238351 3.7668,-3.54112 7.59376,-7.006936 11.60042,-10.303387 5.56561,-4.509163 11.25536,-8.886495 17.01413,-13.173808 5.91107,-4.277385 11.90357,-8.456798 17.96418,-12.542764 5.64145,-3.863939 11.47021,-7.472508 17.37107,-10.969424 1.6349,-1.11926 3.49035,-1.894896 5.15164,-2.972876 1.49772,-0.806583 3.04641,-1.537556 4.47587,-2.451005 1.22093,-0.630467 2.38089,-1.335501 3.57769,-2.001152 1.17231,-0.759492 2.48644,-1.275833 3.66527,-2.021792 1.1052,-0.5400105 2.09745,-1.2308555 3.28939,-1.5935925 0.91366,-0.370622 1.78322,-0.815521 2.7178,-1.140452 l -6.70649,5.5864305 v 0 c -0.90831,0.385337 -1.80235,0.801455 -2.73149,1.141993 -1.0905,0.49543 -2.11106,1.124479 -3.16353,1.687006 -1.23441,0.66725 -2.49166,1.29429 -3.68526,2.028567 -1.16267,0.687292 -2.37957,1.288981 -3.5337,1.989791 -1.4776,0.842547 -3.01059,1.595946 -4.47641,2.457926 -1.69371,0.974664 -3.45757,1.840836 -5.09508,2.903411 -2.49812,1.454153 -7.73875,4.71683 3.08122,-2.069338 179.77477,-26.0875131 12.38494,62.766778 11.77756,63.161266 -1.67929,1.090651 -16.2482,-60.2469 -17.93884,-59.118005 -6.13578,4.09608 -12.19541,8.29657 -18.17646,12.592453 -5.69993,4.228331 -11.28688,8.595747 -16.80258,13.03499 -1.34429,1.110219 -2.72146,2.185328 -4.04116,3.32165 -2.61987,2.255845 -5.03747,4.720447 -7.64811,6.986129 -6.67229,5.933664 -13.48754,11.718801 -20.38147,17.420908 -8.42336,6.993524 -16.98366,13.860135 -26.22096,19.887405 -3.81629,2.41276 -7.61314,4.85329 -11.44885,7.23829 -7.28114,4.52731 -14.79622,8.71788 -22.0624,13.26792 -7.19996,4.46091 -14.34978,9.05153 -22.04797,12.72306 -3.32558,1.46102 -4.49479,2.03311 -7.95146,3.30872 -6.71212,2.47696 -13.69774,4.18951 -20.85105,5.04625 -1.97065,0.1907 -3.93448,0.46137 -5.91194,0.57206 -2.53216,0.14185 10.6994,52.22241 2.04874,24.04716 -3.86559,-0.3044 -19.76129,-25.35413 -23.59962,-25.84215 -6.69969,-1.06973 -13.41132,-2.19781 -19.80286,-4.45965 -7.09036,-2.34674 -14.19345,-4.70438 -20.94697,-7.8442 -4.36235,-2.03324 -8.70081,-4.10381 -12.83363,-6.53884 -5.29133,-2.9113 -10.778,-5.47577 -16.43963,-7.68436 -7.83713,-3.05423 -15.84332,-5.74698 -24.14172,-7.45499 -8.02838,-1.59608 -16.16484,-2.91254 -24.40585,-2.37176 -9.12735,0.54495 -18.24632,1.53544 -27.15139,3.56661 -1.71639,0.42866 -3.44349,0.82062 -5.14916,1.286 -9.03641,2.46552 -17.76133,5.86939 -26.17749,9.82284 -4.04788,1.9782 -6.16794,2.96208 -10.10891,5.09293 -4.82301,2.60778 -9.40548,5.54639 -14.12254,8.31241 -0.77929,0.45697 1.52006,-0.97028 2.28009,-1.45543 -8.08937,5.30829 -16.07895,10.79242 -23.50506,16.91884 -6.70258,5.74466 -13.17418,11.74638 -18.86469,18.41497 -4.12167,5.12151 -8.17994,10.32307 -11.29606,16.06804 -2.62716,4.99982 92.49399,48.71741 91.16284,54.17828 -0.77617,3.49579 -98.76965,-31.52823 -98.82829,-27.95139 z"
       inkscape:connector-curvature="0"
       sodipodi:nodetypes="ccccccsccccccccccccccccccccccccccccccccccccccccccccccccscccccccccccscccccccccc" />
  </g>
</svg>
